<?xml version="1.0" encoding="UTF-8"?>
<!DOCTYPE svg PUBLIC "-//W3C//DTD SVG 1.1//EN" "http://www.w3.org/Graphics/SVG/1.1/DTD/svg11.dtd">
<!-- Creator: CorelDRAW X7 -->
<svg xmlns="http://www.w3.org/2000/svg" xml:space="preserve" width="32mm" height="32mm" version="1.1" style="shape-rendering:geometricPrecision; text-rendering:geometricPrecision; image-rendering:optimizeQuality; fill-rule:evenodd; clip-rule:evenodd"
viewBox="0 0 14438 14438"
 xmlns:xlink="http://www.w3.org/1999/xlink">
 <defs>
  <style type="text/css">
   <![CDATA[
    .fil1 {fill:none}
    .fil0 {fill:#FEFEFE}
   ]]>
  </style>
 </defs>
 <g id="Слой_x0020_1">
  <metadata id="CorelCorpID_0Corel-Layer"/>
  <path class="fil0" d="M8779 10988l-3643 -2037c-509,598 -1252,949 -2045,949 -1480,0 -2686,-1203 -2686,-2684 0,-1479 1204,-2684 2683,-2684 791,0 1535,347 2042,945l3640 -2033c-74,-246 -110,-503 -110,-760 0,-1481 1203,-2684 2683,-2684 1481,0 2684,1203 2684,2684 0,1479 -1205,2683 -2684,2683 -789,0 -1533,-348 -2041,-945l-3644 2034c74,246 111,501 111,760 0,256 -37,511 -108,757l3647 2037c509,-593 1250,-940 2038,-940 1481,0 2687,1203 2687,2684 0,1481 -1203,2684 -2684,2684 -1479,0 -2683,-1205 -2683,-2684 0,-260 39,-518 113,-766zm2567 -9874c-866,0 -1572,706 -1572,1573 0,867 705,1572 1572,1572 868,0 1573,-705 1573,-1572 0,-868 -705,-1573 -1573,-1573zm-8255 7675c866,0 1573,-707 1573,-1573 0,-868 -705,-1573 -1573,-1573 -867,0 -1573,705 -1573,1573 0,867 706,1573 1573,1573zm8255 4535c868,0 1573,-705 1573,-1573 0,-868 -705,-1573 -1573,-1573 -867,0 -1572,705 -1572,1573 0,868 705,1573 1572,1573z"/>
  <rect class="fil1" width="14438" height="14438"/>
 </g>
</svg>
