<?xml version="1.0" encoding="UTF-8"?>
<svg width="52px" height="52px" viewBox="0 0 52 52" version="1.1" xmlns="http://www.w3.org/2000/svg" xmlns:xlink="http://www.w3.org/1999/xlink">
    <!-- Generator: sketchtool 47 (45396) - http://www.bohemiancoding.com/sketch -->
    <title>E5649403-D4E3-4AB7-A784-418583E40938</title>
    <desc>Created with sketchtool.</desc>
    <defs>
        <circle id="path-1" cx="22" cy="22" r="22"></circle>
        <filter x="-15.9%" y="-11.4%" width="131.8%" height="131.8%" filterUnits="objectBoundingBox" id="filter-2">
            <feOffset dx="0" dy="2" in="SourceAlpha" result="shadowOffsetOuter1"></feOffset>
            <feGaussianBlur stdDeviation="2" in="shadowOffsetOuter1" result="shadowBlurOuter1"></feGaussianBlur>
            <feColorMatrix values="0 0 0 0 0   0 0 0 0 0   0 0 0 0 0  0 0 0 0.24 0" type="matrix" in="shadowBlurOuter1"></feColorMatrix>
        </filter>
    </defs>
    <g id="design" stroke="none" stroke-width="1" fill="none" fill-rule="evenodd">
        <g id="home-mobile-first-screen-scroll" transform="translate(-77.000000, -314.000000)">
            <g id="button_play" transform="translate(81.000000, 316.000000)">
                <g id="layer">
                    <use fill="black" fill-opacity="1" filter="url(#filter-2)" xlink:href="#path-1"></use>
                    <use fill="#FFFFFF" fill-rule="evenodd" xlink:href="#path-1"></use>
                </g>
                <path d="M25.5292751,16.2729004 L26.9031746,27.3581365 L26.9031746,27.3581365 C27.0050698,28.1802733 26.4211988,28.9293492 25.599062,29.0312445 C25.4765305,29.046431 25.3525926,29.0464308 25.2300611,29.0312438 L14.1449907,27.6573238 L14.1449907,27.6573238 C13.3228543,27.5554256 12.738986,26.8063475 12.8408843,25.9842111 C12.8819786,25.6526533 13.0325869,25.3443044 13.2688258,25.108062 L22.9799967,15.3967458 L22.9799967,15.3967458 C23.5657788,14.810955 24.5155262,14.8109479 25.1013171,15.39673 C25.3375663,15.6329756 25.4881808,15.941333 25.5292751,16.2729004 Z" id="Rectangle-2" fill="#263238" transform="translate(19.872029, 22.000016) rotate(-45.000000) translate(-19.872029, -22.000016) "></path>
            </g>
        </g>
    </g>
</svg>