<?xml version="1.0" encoding="UTF-8"?>
<!DOCTYPE svg PUBLIC "-//W3C//DTD SVG 1.1//EN" "http://www.w3.org/Graphics/SVG/1.1/DTD/svg11.dtd">
<!-- Creator: CorelDRAW X7 -->
<svg xmlns="http://www.w3.org/2000/svg" xml:space="preserve" width="32mm" height="32mm" version="1.1" style="shape-rendering:geometricPrecision; text-rendering:geometricPrecision; image-rendering:optimizeQuality; fill-rule:evenodd; clip-rule:evenodd"
viewBox="0 0 7589 7589"
 xmlns:xlink="http://www.w3.org/1999/xlink">
 <defs>
  <style type="text/css">
   <![CDATA[
    .fil1 {fill:none}
    .fil0 {fill:#FEFEFE;fill-rule:nonzero}
   ]]>
  </style>
 </defs>
 <g id="Слой_x0020_1">
  <metadata id="CorelCorpID_0Corel-Layer"/>
  <path class="fil0" d="M7323 1606c-258,115 -538,195 -831,229 299,-179 528,-463 637,-801 -280,166 -590,286 -921,351 -263,-280 -640,-457 -1056,-457 -798,0 -1447,649 -1447,1447 0,115 13,224 37,330 -1204,-61 -2270,-636 -2985,-1512 -125,213 -196,463 -196,728 0,502 256,946 644,1204 -237,-6 -459,-73 -655,-181l0 18c0,701 500,1287 1161,1421 -121,32 -250,49 -381,49 -93,0 -183,-8 -273,-25 185,575 718,992 1352,1005 -496,388 -1120,618 -1799,618 -116,0 -230,-6 -344,-19 642,411 1402,650 2220,650 2662,0 4118,-2205 4118,-4117l-5 -188c285,-204 530,-459 724,-750z"/>
  <rect class="fil1" width="7589" height="7589"/>
 </g>
</svg>
