<?xml version="1.0" encoding="UTF-8"?>
<!DOCTYPE svg PUBLIC "-//W3C//DTD SVG 1.1//EN" "http://www.w3.org/Graphics/SVG/1.1/DTD/svg11.dtd">
<!-- Creator: CorelDRAW X7 -->
<svg xmlns="http://www.w3.org/2000/svg" xml:space="preserve" width="32.0001mm" height="32.0001mm" version="1.1" style="shape-rendering:geometricPrecision; text-rendering:geometricPrecision; image-rendering:optimizeQuality; fill-rule:evenodd; clip-rule:evenodd"
viewBox="0 0 17942 17942"
 xmlns:xlink="http://www.w3.org/1999/xlink">
 <g>
  <path fill="#000" d="M7171 8971l-6799 -6799c-496,-496 -496,-1304 0,-1800 496,-496 1304,-496 1800,0l6799 6798 6798 -6798c496,-496 1305,-496 1801,0 496,496 496,1304 0,1800l-6799 6799 6799 6798c496,496 496,1305 0,1801 -496,496 -1305,496 -1801,0l-6798 -6799 -6799 6799c-496,496 -1304,496 -1800,0 -496,-496 -496,-1305 0,-1801l6799 -6798z"/>
 </g>
</svg>
