<?xml version="1.0" encoding="UTF-8" standalone="no"?>
<svg
   xmlns:dc="http://purl.org/dc/elements/1.1/"
   xmlns:cc="http://creativecommons.org/ns#"
   xmlns:rdf="http://www.w3.org/1999/02/22-rdf-syntax-ns#"
   xmlns:svg="http://www.w3.org/2000/svg"
   xmlns="http://www.w3.org/2000/svg"
   xmlns:xlink="http://www.w3.org/1999/xlink"
   xmlns:sodipodi="http://sodipodi.sourceforge.net/DTD/sodipodi-0.dtd"
   xmlns:inkscape="http://www.inkscape.org/namespaces/inkscape"
   width="261px"
   height="494px"
   viewBox="0 0 261 494"
   version="1.1"
   id="svg58"
   sodipodi:docname="iphone-x-white.svg"
   inkscape:version="0.92.1 r15371">
  <metadata
     id="metadata62">
    <rdf:RDF>
      <cc:Work
         rdf:about="">
        <dc:format>image/svg+xml</dc:format>
        <dc:type
           rdf:resource="http://purl.org/dc/dcmitype/StillImage" />
        <dc:title>D4200D6C-28A6-4A9A-B7AB-8EC3AD682BF2</dc:title>
      </cc:Work>
    </rdf:RDF>
  </metadata>
  <sodipodi:namedview
     pagecolor="#ffffff"
     bordercolor="#666666"
     borderopacity="1"
     objecttolerance="10"
     gridtolerance="10"
     guidetolerance="10"
     inkscape:pageopacity="0"
     inkscape:pageshadow="2"
     inkscape:window-width="1920"
     inkscape:window-height="1000"
     id="namedview60"
     showgrid="false"
     inkscape:zoom="1.3512324"
     inkscape:cx="28.652248"
     inkscape:cy="322.14117"
     inkscape:window-x="-11"
     inkscape:window-y="-11"
     inkscape:window-maximized="1"
     inkscape:current-layer="work_runon" />
  <!-- Generator: sketchtool 47 (45396) - http://www.bohemiancoding.com/sketch -->
  <title
     id="title2">D4200D6C-28A6-4A9A-B7AB-8EC3AD682BF2</title>
  <desc
     id="desc4">Created with sketchtool.</desc>
  <defs
     id="defs20">
    <filter
       x="-15.8%"
       y="-5.5%"
       width="131.5%"
       height="115.4%"
       filterUnits="objectBoundingBox"
       id="filter-1">
      <feOffset
         dx="0"
         dy="10"
         in="SourceAlpha"
         result="shadowOffsetOuter1"
         id="feOffset6" />
      <feGaussianBlur
         stdDeviation="10"
         in="shadowOffsetOuter1"
         result="shadowBlurOuter1"
         id="feGaussianBlur8" />
      <feColorMatrix
         values="0 0 0 0 0   0 0 0 0 0   0 0 0 0 0  0 0 0 0.24 0"
         type="matrix"
         in="shadowBlurOuter1"
         result="shadowMatrixOuter1"
         id="feColorMatrix10" />
      <feMerge
         id="feMerge16">
        <feMergeNode
           in="shadowMatrixOuter1"
           id="feMergeNode12" />
        <feMergeNode
           in="SourceGraphic"
           id="feMergeNode14" />
      </feMerge>
    </filter>
    <rect
       id="path-2"
       x="1.79383117"
       y="0"
       width="217.232955"
       height="454"
       rx="26.2799993" />
  </defs>
  <g
     id="design"
     stroke="none"
     stroke-width="1"
     fill="none"
     fill-rule="evenodd">
    <g
       id="work_runon"
       transform="translate(-602.000000, -83.000000)">
      <g
         style="fill:#232e34;fill-rule:nonzero;filter:url(#filter-1)"
         transform="translate(622,226.97186)"
         id="button_1">
        <path
           inkscape:connector-curvature="0"
           id="Shape"
           d="m 0.20981778,0.6090114 c 0.0623306,0 0.62330594,0 0.62330594,0 V 34.073301 c 0,0 -0.56097534,0 -0.62330594,0 -0.0623306,0 -0.18699178,-0.193809 -0.18699178,-0.323015 0,-0.129206 0,-32.75365735 0,-32.8828631 C -0.0395046,0.73821715 0.14748719,0.6090114 0.20981778,0.6090114 Z" />
        <path
           style="opacity:0.57999998"
           inkscape:connector-curvature="0"
           id="path23"
           d="m 0.20981778,0.6090114 c 0.0623306,0 0.62330594,0 0.62330594,0 V 34.073301 c 0,0 -0.56097534,0 -0.62330594,0 -0.0623306,0 -0.18699178,-0.193809 -0.18699178,-0.323015 0,-0.129206 0,-32.75365735 0,-32.8828631 C -0.0395046,0.73821715 0.14748719,0.6090114 0.20981778,0.6090114 Z" />
        <rect
           height="34.110317"
           width="1.1842813"
           y="0.16732155"
           x="0.77073079"
           transform="rotate(-180,1.362871,17.222481)"
           id="Rectangle-path" />
      </g>
      <g
         style="fill:#232e34;fill-rule:nonzero;filter:url(#filter-1)"
         transform="translate(840.50678,196.60851)"
         id="button_1_3_">
        <path
           inkscape:connector-curvature="0"
           id="path27"
           d="m 2.0493009,53.38956 c -0.062331,0 -0.6233059,0 -0.6233059,0 V 0.28599703 c 0,0 0.5609753,0 0.6233059,0 0.062331,0 0.1869918,0.19380862 0.1869918,0.32301437 0,0.0646029 0,52.3929316 0,52.5221376 0,0.0646 -0.1246612,0.258411 -0.1869918,0.258411 z" />
        <path
           inkscape:connector-curvature="0"
           id="path29"
           d="m 1.8699178,53.38956 c -0.062331,0 -0.6233059,0 -0.6233059,0 V 0.28599703 c 0,0 0.5609753,0 0.6233059,0 0.062331,0 0.1869918,0.19380862 0.1869918,0.32301437 0,0.0646029 0,52.3929316 0,52.5221376 0,0.0646 -0.1246612,0.258411 -0.1869918,0.258411 z" />
        <rect
           height="53.68499"
           width="1.1842813"
           y="0.027585529"
           x="0.12466119"
           id="rect31" />
      </g>
      <g
         style="fill:#232e34;fill-rule:nonzero;filter:url(#filter-1)"
         transform="translate(622,183.22192)"
         id="button_1_1_">
        <path
           inkscape:connector-curvature="0"
           id="path34"
           d="m 0.20981778,0.42899554 c 0.0623306,0 0.62330594,0 0.62330594,0 V 33.893285 c 0,0 -0.56097534,0 -0.62330594,0 -0.0623306,0 -0.18699178,-0.193809 -0.18699178,-0.323015 0,-0.0646 0,-32.75365721 0,-32.88286296 0,-0.12920575 0.12466119,-0.2584115 0.18699178,-0.2584115 z" />
        <path
           style="opacity:0.57999998"
           inkscape:connector-curvature="0"
           id="path36"
           d="m 0.3892009,0.42899554 c 0.0623306,0 0.6233059,0 0.6233059,0 V 33.893285 c 0,0 -0.56097531,0 -0.6233059,0 -0.0623306,0 -0.18699179,-0.193809 -0.18699179,-0.323015 0,-0.0646 0,-32.75365721 0,-32.88286296 0,-0.12920575 0.12466119,-0.2584115 0.18699179,-0.2584115 z" />
        <rect
           height="34.110317"
           width="1.1842813"
           y="0.087892361"
           x="0.77073079"
           transform="rotate(-180,1.362871,17.143051)"
           id="rect38" />
      </g>
      <g
         style="fill:#232e34;fill-rule:nonzero;filter:url(#filter-1)"
         transform="translate(622.26454,151.56651)"
         id="button_1_2_">
        <path
           inkscape:connector-curvature="0"
           id="path41"
           d="m 0.26453971,0.49359842 c 0.0623306,0 0.62330594,0 0.62330594,0 V 17.742566 c 0,0 -0.56097535,0 -0.62330594,0 -0.0623306,0 -0.18699178,-0.193809 -0.18699178,-0.323014 0,-0.0646 0,-16.53833633 0,-16.66754208 0,-0.12920575 0.12466118,-0.2584115 0.18699178,-0.2584115 z" />
        <path
           style="opacity:0.57999998"
           inkscape:connector-curvature="0"
           id="path43"
           d="m 0.44392283,0.49359842 c 0.0623306,0 0.62330597,0 0.62330597,0 V 17.742566 c 0,0 -0.56097538,0 -0.62330597,0 -0.0623306,0 -0.18699179,-0.193809 -0.18699179,-0.323014 0,-0.0646 0,-16.53833633 0,-16.66754208 0,-0.12920575 0.12466119,-0.2584115 0.18699179,-0.2584115 z" />
        <rect
           height="17.894997"
           width="1.1842813"
           y="0.04021544"
           x="0.78823704"
           transform="rotate(-180,1.380378,8.987714)"
           id="rect45" />
      </g>
      <g
         style="filter:url(#filter-1)"
         id="body"
         transform="translate(622,93)">
        <use
           height="100%"
           width="100%"
           y="0"
           x="0"
           style="fill:#232e34;fill-rule:evenodd"
           id="use48"
           xlink:href="#path-2" />
        <rect
           style="stroke:#232e34;stroke-width:1.79999995"
           id="rect50"
           rx="26.279999"
           height="452.20001"
           width="215.43295"
           y="0.89999998"
           x="2.6938312" />
      </g>
      <path
         style="fill:#ffffff;fill-rule:nonzero;filter:url(#filter-1);fill-opacity:1"
         inkscape:connector-curvature="0"
         id="Mask"
         d="m 816.07391,100.74068 c -9.10016,0 -24.22437,0 -25.12157,0 -2.17891,0 -3.5888,1.62126 -4.10148,4.53953 -1.73031,10.37607 -7.36985,11.08943 -9.03607,11.08943 -1.40989,0 -89.33536,0 -90.80933,0 -1.66623,0 -7.36985,-0.77821 -9.03608,-11.08943 -0.4486,-2.91827 -1.85848,-4.53953 -4.10148,-4.53953 -0.96128,0 -16.0214,0 -25.12156,0 -9.10016,0 -17.23903,9.72757 -17.23903,19.00118 0,9.27361 0,390.78872 0,401.81329 0,11.47853 11.53541,17.70417 17.04677,17.70417 3.01203,0 164.70006,0 167.71208,0 5.51137,0 17.04678,-6.22564 17.04678,-17.70417 0,-11.02457 0,-396.56041 0,-401.81329 0.0641,-9.27361 -8.13888,-19.00118 -17.23903,-19.00118 z" />
      <g
         style="filter:url(#filter-1)"
         transform="translate(631,100)"
         id="iPhone-X-presentation-wallpaper-ar72014" />
    </g>
  </g>
</svg>
