<?xml version="1.0" encoding="UTF-8"?>
<svg width="261px" height="494px" viewBox="0 0 261 494" version="1.1" xmlns="http://www.w3.org/2000/svg" xmlns:xlink="http://www.w3.org/1999/xlink">
    <!-- Generator: sketchtool 47 (45396) - http://www.bohemiancoding.com/sketch -->
    <title>9E39C708-F299-4242-8A72-92238D6EAD68</title>
    <desc>Created with sketchtool.</desc>
    <defs>
        <filter x="-15.8%" y="-5.5%" width="131.5%" height="115.4%" filterUnits="objectBoundingBox" id="filter-1">
            <feOffset dx="0" dy="10" in="SourceAlpha" result="shadowOffsetOuter1"></feOffset>
            <feGaussianBlur stdDeviation="10" in="shadowOffsetOuter1" result="shadowBlurOuter1"></feGaussianBlur>
            <feColorMatrix values="0 0 0 0 0   0 0 0 0 0   0 0 0 0 0  0 0 0 0.24 0" type="matrix" in="shadowBlurOuter1" result="shadowMatrixOuter1"></feColorMatrix>
            <feMerge>
                <feMergeNode in="shadowMatrixOuter1"></feMergeNode>
                <feMergeNode in="SourceGraphic"></feMergeNode>
            </feMerge>
        </filter>
        <rect id="path-2" x="1.79383117" y="0" width="217.232955" height="454" rx="26.2799993"></rect>
    </defs>
    <g id="design" stroke="none" stroke-width="1" fill="none" fill-rule="evenodd">
        <g id="work_nyu" transform="translate(-603.000000, -83.000000)">
            <g id="iphone-x-dark" filter="url(#filter-1)" transform="translate(623.000000, 93.000000)">
                <g id="button_1" transform="translate(0.000000, 133.971860)" fill-rule="nonzero" fill="#95A1A9">
                    <path d="M0.209817781,0.609011404 C0.272148375,0.609011404 0.833123723,0.609011404 0.833123723,0.609011404 L0.833123723,34.0733006 C0.833123723,34.0733006 0.272148375,34.0733006 0.209817781,34.0733006 C0.147487186,34.0733006 0.0228259977,33.879492 0.0228259977,33.7502863 C0.0228259977,33.6210805 0.0228259977,0.996628654 0.0228259977,0.867422904 C-0.0395045965,0.738217154 0.147487186,0.609011404 0.209817781,0.609011404 Z" id="Shape"></path>
                    <path d="M0.209817781,0.609011404 C0.272148375,0.609011404 0.833123723,0.609011404 0.833123723,0.609011404 L0.833123723,34.0733006 C0.833123723,34.0733006 0.272148375,34.0733006 0.209817781,34.0733006 C0.147487186,34.0733006 0.0228259977,33.879492 0.0228259977,33.7502863 C0.0228259977,33.6210805 0.0228259977,0.996628654 0.0228259977,0.867422904 C-0.0395045965,0.738217154 0.147487186,0.609011404 0.209817781,0.609011404 Z" id="Shape" opacity="0.58"></path>
                    <rect id="Rectangle-path" transform="translate(1.362871, 17.222481) rotate(-180.000000) translate(-1.362871, -17.222481) " x="0.770730798" y="0.167321548" width="1.18428129" height="34.110318"></rect>
                </g>
                <g id="button_1_3_" transform="translate(218.506776, 103.608509)" fill-rule="nonzero" fill="#95A1A9">
                    <path d="M2.04930094,53.3895603 C1.98697035,53.3895603 1.425995,53.3895603 1.425995,53.3895603 L1.425995,0.285997029 C1.425995,0.285997029 1.98697035,0.285997029 2.04930094,0.285997029 C2.11163154,0.285997029 2.23629273,0.479805654 2.23629273,0.609011404 C2.23629273,0.673614279 2.23629273,53.001943 2.23629273,53.1311488 C2.23629273,53.1957516 2.11163154,53.3895603 2.04930094,53.3895603 Z" id="Shape"></path>
                    <path d="M1.86991783,53.3895603 C1.80758723,53.3895603 1.24661189,53.3895603 1.24661189,53.3895603 L1.24661189,0.285997029 C1.24661189,0.285997029 1.80758723,0.285997029 1.86991783,0.285997029 C1.93224842,0.285997029 2.05690961,0.479805654 2.05690961,0.609011404 C2.05690961,0.673614279 2.05690961,53.001943 2.05690961,53.1311488 C2.05690961,53.1957516 1.93224842,53.3895603 1.86991783,53.3895603 Z" id="Shape"></path>
                    <rect id="Rectangle-path" x="0.124661189" y="0.027585529" width="1.18428129" height="53.6849891"></rect>
                </g>
                <g id="button_1_1_" transform="translate(0.000000, 90.221921)" fill-rule="nonzero" fill="#95A1A9">
                    <path d="M0.209817781,0.428995543 C0.272148375,0.428995543 0.833123723,0.428995543 0.833123723,0.428995543 L0.833123723,33.8932848 C0.833123723,33.8932848 0.272148375,33.8932848 0.209817781,33.8932848 C0.147487186,33.8932848 0.0228259977,33.6994762 0.0228259977,33.5702704 C0.0228259977,33.5056675 0.0228259977,0.816612793 0.0228259977,0.687407043 C0.0228259977,0.558201293 0.147487186,0.428995543 0.209817781,0.428995543 Z" id="Shape"></path>
                    <path d="M0.389200897,0.428995543 C0.451531492,0.428995543 1.01250684,0.428995543 1.01250684,0.428995543 L1.01250684,33.8932848 C1.01250684,33.8932848 0.451531492,33.8932848 0.389200897,33.8932848 C0.326870303,33.8932848 0.202209115,33.6994762 0.202209115,33.5702704 C0.202209115,33.5056675 0.202209115,0.816612793 0.202209115,0.687407043 C0.202209115,0.558201293 0.326870303,0.428995543 0.389200897,0.428995543 Z" id="Shape" opacity="0.58"></path>
                    <rect id="Rectangle-path" transform="translate(1.362871, 17.143051) rotate(-180.000000) translate(-1.362871, -17.143051) " x="0.770730798" y="0.0878923635" width="1.18428129" height="34.110318"></rect>
                </g>
                <g id="button_1_2_" transform="translate(0.264540, 58.566512)" fill-rule="nonzero" fill="#95A1A9">
                    <path d="M0.264539709,0.493598418 C0.326870303,0.493598418 0.887845652,0.493598418 0.887845652,0.493598418 L0.887845652,17.742566 C0.887845652,17.742566 0.326870303,17.742566 0.264539709,17.742566 C0.202209115,17.742566 0.0775479261,17.5487574 0.0775479261,17.4195517 C0.0775479261,17.3549488 0.0775479261,0.881215668 0.0775479261,0.752009918 C0.0775479261,0.622804168 0.202209115,0.493598418 0.264539709,0.493598418 Z" id="Shape"></path>
                    <path d="M0.443922826,0.493598418 C0.50625342,0.493598418 1.06722877,0.493598418 1.06722877,0.493598418 L1.06722877,17.742566 C1.06722877,17.742566 0.50625342,17.742566 0.443922826,17.742566 C0.381592232,17.742566 0.256931043,17.5487574 0.256931043,17.4195517 C0.256931043,17.3549488 0.256931043,0.881215668 0.256931043,0.752009918 C0.256931043,0.622804168 0.381592232,0.493598418 0.443922826,0.493598418 Z" id="Shape" opacity="0.58"></path>
                    <rect id="Rectangle-path" transform="translate(1.380378, 8.987714) rotate(-180.000000) translate(-1.380378, -8.987714) " x="0.788237028" y="0.0402154418" width="1.18428129" height="17.8949964"></rect>
                </g>
                <g id="body">
                    <use fill="#494863" fill-rule="evenodd" xlink:href="#path-2"></use>
                    <rect stroke="#494863" stroke-width="1.79999995" x="2.69383114" y="0.899999976" width="215.432955" height="452.2" rx="26.2799993"></rect>
                </g>
                <path d="M194.073906,7.740682 C184.973747,7.740682 169.849539,7.740682 168.95234,7.740682 C166.773429,7.740682 165.363545,9.36194285 164.85086,12.2802124 C163.120549,22.6562819 157.481014,23.3696366 155.814787,23.3696366 C154.404904,23.3696366 66.4794259,23.3696366 65.0054565,23.3696366 C63.3392303,23.3696366 57.6356097,22.5914314 55.9693834,12.2802124 C55.520784,9.36194285 54.1109003,7.740682 51.8679034,7.740682 C50.906619,7.740682 35.8464971,7.740682 26.7463383,7.740682 C17.6461796,7.740682 9.50730519,17.4682471 9.50730519,26.7418592 C9.50730519,36.0154713 9.50730519,417.530576 9.50730519,428.555149 C9.50730519,440.033676 21.0427177,446.259318 26.5540815,446.259318 C29.5661059,446.259318 191.254138,446.259318 194.266162,446.259318 C199.777526,446.259318 211.312939,440.033676 211.312939,428.555149 C211.312939,417.530576 211.312939,31.9947444 211.312939,26.7418592 C211.377024,17.4682471 203.174064,7.740682 194.073906,7.740682 Z" id="Mask" fill="#1B1A31" fill-rule="nonzero"></path>
                <g id="iPhone-X-presentation-wallpaper-ar72014" transform="translate(9.000000, 7.000000)"></g>
            </g>
        </g>
    </g>
</svg>